<svg width="47" height="47" viewBox="0 0 47 47" fill="none" xmlns="http://www.w3.org/2000/svg">
<path fill-rule="evenodd" clip-rule="evenodd" d="M23.5001 0.00012207C36.47 0.00012207 47 10.5301 47 23.5C47 36.47 36.47 47.0001 23.5001 47.0001C10.5301 47.0001 0 36.47 0 23.5C0 10.5301 10.5301 0.00012207 23.5001 0.00012207ZM23.5001 2.23819C11.7653 2.23819 2.23821 11.7653 2.23821 23.5C2.23821 35.2348 11.7653 44.7619 23.5001 44.7619C35.2348 44.7619 44.7619 35.2348 44.7619 23.5C44.7619 11.7653 35.2348 2.23819 23.5001 2.23819Z" fill="black"/>
<path fill-rule="evenodd" clip-rule="evenodd" d="M22.381 1.11921C22.381 0.501589 22.8824 0.000244141 23.5001 0.000244141C24.1175 0.000244141 24.619 0.501589 24.619 1.11921C24.619 14.0892 14.0891 24.6193 1.1191 24.6193C0.501485 24.6193 0 24.1178 0 23.5002C0 22.8825 0.501485 22.3811 1.1191 22.3811C12.8539 22.3811 22.381 12.854 22.381 1.11921Z" fill="black"/>
<path fill-rule="evenodd" clip-rule="evenodd" d="M45.881 22.381C46.4987 22.381 47 22.8824 47 23.5001C47 24.1175 46.4987 24.619 45.881 24.619C32.911 24.619 22.381 14.0891 22.381 1.1191C22.381 0.501485 22.8825 0 23.5001 0C24.1177 0 24.6192 0.501485 24.6192 1.1191C24.6192 12.8539 34.1463 22.381 45.881 22.381Z" fill="black"/>
<path fill-rule="evenodd" clip-rule="evenodd" d="M24.619 45.8807C24.619 46.4983 24.1176 46.9997 23.4999 46.9997C22.8825 46.9997 22.381 46.4983 22.381 45.8807C22.381 32.9107 32.9109 22.3807 45.8809 22.3807C46.4985 22.3807 47 22.8822 47 23.4998C47 24.1174 46.4985 24.6189 45.8809 24.6189C34.1461 24.6189 24.619 34.146 24.619 45.8807Z" fill="black"/>
<path fill-rule="evenodd" clip-rule="evenodd" d="M1.11896 24.619C0.501345 24.619 0 24.1176 0 23.4999C0 22.8825 0.501345 22.381 1.11896 22.381C14.089 22.381 24.619 32.9109 24.619 45.8809C24.619 46.4985 24.1175 47 23.4999 47C22.8823 47 22.3808 46.4985 22.3808 45.8809C22.3808 34.1461 12.8537 24.619 1.11896 24.619Z" fill="black"/>
</svg>
