<?xml version="1.0" encoding="UTF-8" standalone="no"?>
<!DOCTYPE svg PUBLIC "-//W3C//DTD SVG 1.1//EN" "http://www.w3.org/Graphics/SVG/1.1/DTD/svg11.dtd">
<svg width="100%" height="100%" viewBox="0 0 128 128" version="1.1" xmlns="http://www.w3.org/2000/svg" xmlns:xlink="http://www.w3.org/1999/xlink" xml:space="preserve" xmlns:serif="http://www.serif.com/" style="fill-rule:evenodd;clip-rule:evenodd;stroke-linecap:round;stroke-miterlimit:1.5;">
    <g transform="matrix(0.279432,0,0,0.279432,-34.382373,-32.747641)">
        <g transform="matrix(0,0.597529,-1.104478,0,1413.784337,310.594988)">
            <path d="M207.542,1097.084L206.96,825.462L414.431,934.394" style="fill:none;stroke:black;stroke-width:20.15px;"/>
        </g>
        <g transform="matrix(1.083343,0,0,1.083343,-41.381046,-385.983153)">
            <path d="M363.192,757.113L363.192,871.574" style="fill:none;stroke:black;stroke-width:16.52px;"/>
        </g>
        <g transform="matrix(0.931031,0,0,0.931031,13.937276,-260.987719)">
            <circle cx="363.192" cy="585.606" r="161.112" style="fill:none;stroke:black;stroke-width:19.22px;"/>
        </g>
        <g transform="matrix(0.931031,0,0,0.931031,13.937276,-260.987719)">
            <g transform="matrix(1,0,0,1,-161.111729,-161.111729)">
                <path d="M524.304,585.606C524.304,674.526 452.112,746.718 363.192,746.718" style="fill:none;stroke:black;stroke-width:19.22px;"/>
            </g>
            <g transform="matrix(0,1,-1,0,1109.909796,61.302795)">
                <path d="M524.304,585.606C524.304,674.526 452.112,746.718 363.192,746.718" style="fill:none;stroke:black;stroke-width:19.22px;"/>
            </g>
        </g>
        <g transform="matrix(-0.931031,-0,0,-0.931031,690.222809,829.447408)">
            <g transform="matrix(1,0,0,1,-161.111729,-161.111729)">
                <path d="M524.304,585.606C524.304,674.526 452.112,746.718 363.192,746.718" style="fill:none;stroke:black;stroke-width:19.22px;"/>
            </g>
            <g transform="matrix(0,1,-1,0,1109.909796,61.302795)">
                <path d="M524.304,585.606C524.304,674.526 452.112,746.718 363.192,746.718" style="fill:none;stroke:black;stroke-width:19.22px;"/>
            </g>
        </g>
        <g transform="matrix(1.214169,0,0,1.121701,-500.870278,-341.926135)">
            <rect x="578.956" y="424.495" width="247.083" height="377.997" style="fill:none;stroke:black;stroke-width:15.31px;"/>
        </g>
    </g>
</svg>
